JoggingL1_filt_ID.mot
version=1
datacolumns 20
datarows 20
range 0.000000 0.190000
inDegrees=yes
endheader
time	pelvis_tilt	pelvis_list	pelvis_rotation	hip_flexion_r	hip_adduction_r	hip_rotation_r	knee_angle_r	ankle_angle_r	hip_flexion_l	hip_adduction_l	hip_rotation_l	knee_angle_l	ankle_angle_l	pelvis_tx	pelvis_ty	pelvis_tz	lumbar_bending	lumbar_rotation	lumbar_extension
0.000000	20.516822	7.043324	-173.060803	33.577131	-2.860104	-8.110075	-33.254590	11.183360	13.885719	-3.161696	-5.821451	-7.089930	13.082449	2.268829	0.935847	0.108563	-0.000000	-0.000000	0.000000
0.010000	20.705549	6.823909	-173.371378	34.614342	-3.213054	-7.283156	-34.957184	11.323073	13.802677	-2.958940	-6.523347	-7.249884	13.565057	2.265007	0.935024	0.108969	-0.000000	-0.000000	0.000000
0.020000	20.836121	6.462426	-173.670738	36.314938	-3.653772	-6.746972	-37.812074	11.726131	13.573044	-2.610991	-6.900073	-7.558309	14.109215	2.258655	0.933292	0.109249	-0.000000	-0.000000	0.000000
0.030000	20.891790	6.428007	-173.774367	36.916869	-3.659981	-6.828122	-38.611345	11.918518	13.482318	-2.597282	-6.863292	-7.687341	14.276707	2.255740	0.932566	0.109386	-0.000000	-0.000000	0.000000
0.040000	20.967820	6.428259	-173.917415	37.594742	-3.610510	-6.955169	-39.409176	12.140463	13.373957	-2.633504	-6.816864	-7.844309	14.491620	2.252112	0.931718	0.109590	-0.000000	-0.000000	0.000000
0.050000	21.059501	6.463816	-174.110078	38.323802	-3.503708	-7.103941	-40.157374	12.380491	13.242637	-2.724915	-6.781896	-8.031218	14.769966	2.247811	0.930762	0.109862	-0.000000	-0.000000	0.000000
0.060000	21.156448	6.527878	-174.353730	39.077708	-3.349061	-7.259175	-40.819036	12.622273	13.081606	-2.866693	-6.772744	-8.247218	15.121532	2.242939	0.929704	0.110189	-0.000000	-0.000000	0.000000
0.070000	21.245106	6.608171	-174.640190	39.838449	-3.165965	-7.416319	-41.382037	12.847532	12.881642	-3.045020	-6.792515	-8.486538	15.549602	2.237610	0.928534	0.110548	-0.000000	-0.000000	0.000000
0.080000	21.314772	6.690758	-174.953170	40.600625	-2.978567	-7.581555	-41.855790	13.046266	12.634810	-3.240586	-6.836489	-8.737753	16.046975	2.231925	0.927229	0.110913	-0.000000	-0.000000	0.000000
0.090000	21.362436	6.764530	-175.272173	41.368789	-2.809090	-7.766254	-42.257037	13.222088	12.338136	-3.434271	-6.898696	-8.984939	16.593968	2.225942	0.925766	0.111265	-0.000000	-0.000000	0.000000
0.100000	21.390512	6.824986	-175.578297	42.147061	-2.671165	-7.976545	-42.593073	13.383367	11.990944	-3.614283	-6.972037	-9.210644	17.166356	2.219688	0.924138	0.111587	-0.000000	-0.000000	0.000000
0.110000	21.401260	6.875267	-175.859969	42.929894	-2.565529	-8.206460	-42.853132	13.530788	11.589721	-3.780752	-7.046598	-9.399252	17.747751	2.213169	0.922361	0.111869	-0.000000	-0.000000	0.000000
0.120000	21.391895	6.923067	-176.115951	43.699759	-2.480630	-8.437623	-43.012778	13.650899	11.124274	-3.943903	-7.110080	-9.538548	18.336651	2.206385	0.920477	0.112102	-0.000000	-0.000000	0.000000
0.130000	21.357284	6.974144	-176.353967	44.436476	-2.400009	-8.649049	-43.047581	13.718261	10.582736	-4.115232	-7.154478	-9.619819	18.940508	2.199344	0.918539	0.112275	-0.000000	-0.000000	0.000000
0.140000	21.300207	7.026643	-176.585451	45.133197	-2.313055	-8.832095	-42.946276	13.706623	9.965342	-4.297235	-7.187655	-9.638120	19.560063	2.192062	0.916606	0.112371	-0.000000	-0.000000	0.000000
0.150000	21.234628	7.070896	-176.819685	45.800191	-2.219903	-8.991505	-42.714182	13.602611	9.289589	-4.480322	-7.235195	-9.592768	20.180364	2.184555	0.914728	0.112373	-0.000000	-0.000000	0.000000
0.160000	21.178400	7.094458	-177.061078	46.453518	-2.126859	-9.132219	-42.367332	13.415503	8.581617	-4.648510	-7.329132	-9.487852	20.773009	2.176837	0.912939	0.112262	-0.000000	-0.000000	0.000000
0.170000	21.145800	7.088548	-177.309609	47.102611	-2.038338	-9.248669	-41.923879	13.179574	7.866104	-4.788279	-7.494673	-9.333729	21.300899	2.168914	0.911259	0.112025	-0.000000	-0.000000	0.000000
0.180000	21.143579	7.052704	-177.561480	47.743665	-1.951901	-9.322169	-41.397906	12.945062	7.160377	-4.895392	-7.739798	-9.148629	21.722345	2.160770	0.909686	0.111653	-0.000000	-0.000000	0.000000
0.190000	21.168938	6.995924	-177.808457	48.358872	-1.858840	-9.324952	-40.798571	12.759587	6.471482	-4.977161	-8.048172	-8.957827	21.995552	2.152377	0.908217	0.111149	-0.000000	-0.000000	0.000000
